<svg xmlns="http://www.w3.org/2000/svg" viewBox="0 0 512 512"><circle cx="256" cy="256" r="256" fill="#143c52"/><path d="M527.668 746.276c1.283-5.926 2.016-12.067 2.016-18.397 0-47.418-38.464-85.866-85.87-85.866-19.914 0-38.217 6.85-52.792 18.25-4.52-13.537-17.283-23.3-32.316-23.3-10.807 0-19.48 5.68-26.567 12.764-9.476 9.5-28.225.832-31.196-1.125-13.697-8.955-36.517-26.878-36.517-104.444l-.105-15.138c0-8.428 3.557-12.606 8.3-13.445 5.486-.972 9.898-5.04 9.898-10.684 0-.023-.012-.046-.012-.06 10.285-.37 18.52-8.75 18.52-19.123 0-10.596-8.575-19.18-19.17-19.18-5.7 0-10.748 2.532-14.26 6.47-1.002-2.667-3.57-4.583-6.593-4.583-2.684 0-5.023 1.542-6.2 3.774-1.835-3.34-5.346-5.656-9.43-5.656-4.155 0-7.73 2.4-9.524 5.86-1.92-.878-4.074-1.407-6.354-1.407-8.468 0-15.33 6.863-15.33 15.344a15.34 15.34 0 0 0 15.331 15.338c.117 0 .206-.03.3-.035-.117.5-.3.967-.3 1.5 0 2.995 2.05 5.3 4.7 6.346 2.66 1.06 4.402 3.926 4.402 7.033v52.97c0 30.276-3.8 51.27-14 65.774-3.58 5.08-8.5 9.382-15.156 9.382-5.245 0-10.016-2.38-13.087-6.13.053.082.076.147.122.224-7.888-12.876-22.066-21.5-38.253-21.5-14.868 0-27.997 7.232-36.173 18.367-15.455-10.262-33.962-16.27-53.907-16.27-53.894 0-97.587 43.698-97.587 97.6 0 53.9 43.692 97.587 97.587 97.587 21.55 0 41.388-7.06 57.528-18.878 1.677 18.794 17.453 33.517 36.67 33.517 20.366 0 36.846-16.504 36.846-36.853 0-2.1-.206-4.178-.557-6.212 7.565 3.628 16 5.725 24.955 5.725 15.777 0 30.03-6.318 40.46-16.55-.005.298-.082.575-.082.878 0 12.46 10.104 22.552 22.558 22.552 5.984 0 11.364-2.356 15.397-6.153 6.916 21.245 26.86 36.6 50.402 36.6 20.272 0 37.86-11.382 46.77-28.1 13.04 7.977 28.313 12.66 44.723 12.66 21.896 0 41.817-8.252 56.978-21.75 4.067 2.544 8.868 4.08 14.008 4.08 14.728 0 26.65-11.914 26.65-26.614-.01-10.014-5.63-18.642-13.777-23.184zM388.382 351.393c-58.9-48.797-99.638-124.195-99.638-206.672v280.306h122V399.27c0-19.2-8.603-36.496-22.354-47.878z" fill="#fff"/><g fill="#353f49"><path d="M388.382 351.393c-58.9-48.797-99.638-124.195-99.638-206.672v120.895h14.33c17.952 36.71 43.85 70.03 76.184 96.795 10.92 9.05 17.178 22.48 17.178 36.87v25.758h14.3V399.28c0-19.222-8.603-36.507-22.354-47.888z"/><path d="M357.274 404.222h39.9v3.997h-39.9z"/></g><path d="M123.62 351.393c58.912-48.797 99.632-124.195 99.632-206.672v280.306H101.268V399.27c-.002-19.21 8.62-36.496 22.352-47.878z" fill="#fff"/><g fill="#353f49"><path d="M123.62 351.393c58.912-48.797 99.632-124.195 99.632-206.672v120.895h-14.318c-17.952 36.71-43.868 70.03-76.19 96.795-10.9 9.05-17.17 22.48-17.17 36.87v25.758h-14.306V399.28c-.002-19.222 8.62-36.507 22.352-47.888z"/><path d="M114.816 404.222h39.9v3.997h-39.9z"/></g><path d="M302.487 95.094L256 106.804l-46.487-11.7c.305-1.12.72-2.168 1.277-3.165l.534-.967L256 13.59l45.232 78.34c.53.997.962 2.046 1.254 3.165z" fill="#fff"/><path d="M256 13.59l15.478 83.14.2 2.557 29.01-8.323z" fill="#d9d8d7"/><path d="M272.064 41.404L256 13.59l-16.053 27.815z" fill="#474f59"/><path d="M272.064 41.404L256 13.59l5.186 27.815z" fill="#353f49"/><path d="M208.94 99.3h31.377v308.948H208.94z" fill="#ff916e"/><path d="M240.306 99.3h31.372v308.948h-31.372z" fill="#f77b55"/><path d="M271.65 99.3h31.395v308.948H271.65z" fill="#ee643c"/><circle cx="224.646" cy="99.29" r="15.69" fill="#ff916e"/><circle cx="256" cy="99.29" r="15.695" fill="#f77b55"/><path d="M303.073 99.284c0 8.662-7.05 15.682-15.695 15.682-8.674 0-15.7-7.02-15.7-15.682 0-8.667 7-15.682 15.7-15.682 8.646-.002 15.695 7.014 15.695 15.682z" fill="#ee643c"/><path d="M206.127 408.23h99.75v33.652h-99.75z" fill="#f2f2f2"/><path d="M271.65 408.23h34.18v33.652h-34.18z" fill="#d9d8d7"/><path d="M303.073 456.704a18.79 18.79 0 0 1-5.532 13.31c-3.68 3.674-8.5 5.51-13.316 5.51H227.78c-4.812 0-9.652-1.835-13.3-5.51-3.68-3.68-5.54-8.49-5.54-13.3v-14.822h94.14z" fill="#474f59"/><path d="M271.678 441.882v14.822a18.75 18.75 0 0 1-18.825 18.819h31.372c4.817 0 9.64-1.835 13.316-5.51 3.674-3.68 5.532-8.49 5.532-13.3v-14.822z" fill="#353f49"/><path d="M252.3 367.6h7.425v74.284H252.3z" fill="#474f59"/></svg>