<?xml version="1.0" encoding="UTF-8" standalone="no"?>
<!-- Generator: Adobe Illustrator 19.0.0, SVG Export Plug-In . SVG Version: 6.00 Build 0)  -->

<svg
   xmlns:dc="http://purl.org/dc/elements/1.1/"
   xmlns:cc="http://creativecommons.org/ns#"
   xmlns:rdf="http://www.w3.org/1999/02/22-rdf-syntax-ns#"
   xmlns:svg="http://www.w3.org/2000/svg"
   xmlns="http://www.w3.org/2000/svg"
   xmlns:sodipodi="http://sodipodi.sourceforge.net/DTD/sodipodi-0.dtd"
   xmlns:inkscape="http://www.inkscape.org/namespaces/inkscape"
   version="1.1"
   id="Layer_1"
   x="0px"
   y="0px"
   viewBox="0 0 512 512"
   style="enable-background:new 0 0 512 512;"
   xml:space="preserve"
   sodipodi:docname="logo.svg"
   inkscape:export-filename="/home/daniel/Desktop/logo.png"
   inkscape:export-xdpi="503"
   inkscape:export-ydpi="503"
   inkscape:version="0.92.2 2405546, 2018-03-11"><metadata
   id="metadata119"><rdf:RDF><cc:Work
       rdf:about=""><dc:format>image/svg+xml</dc:format><dc:type
         rdf:resource="http://purl.org/dc/dcmitype/StillImage" /><dc:title /></cc:Work></rdf:RDF></metadata><defs
   id="defs117" /><sodipodi:namedview
   pagecolor="#ffffff"
   bordercolor="#666666"
   borderopacity="1"
   objecttolerance="10"
   gridtolerance="10"
   guidetolerance="10"
   inkscape:pageopacity="0"
   inkscape:pageshadow="2"
   inkscape:window-width="1680"
   inkscape:window-height="979"
   id="namedview115"
   showgrid="false"
   inkscape:zoom="0.32593203"
   inkscape:cx="-612.20402"
   inkscape:cy="193.05264"
   inkscape:window-x="0"
   inkscape:window-y="29"
   inkscape:window-maximized="1"
   inkscape:current-layer="Layer_1" />
<circle
   style="fill:#003959;fill-opacity:1"
   cx="256"
   cy="256"
   r="256"
   id="circle2" />


















<g
   id="g914"
   transform="translate(-2.3006001)"><g
     transform="matrix(1.7742362,0,0,1.7742362,-195.90298,-18.68632)"
     id="g8">
	<path
   inkscape:connector-curvature="0"
   id="path4"
   d="m 409.118,431.15 c 0.723,-3.34 1.136,-6.801 1.136,-10.369 0,-26.726 -21.679,-48.396 -48.399,-48.396 -11.224,0 -21.54,3.861 -29.755,10.286 -2.547,-7.63 -9.741,-13.127 -18.214,-13.127 -6.091,0 -10.98,3.201 -14.974,7.194 -5.341,5.348 -15.908,0.469 -17.583,-0.634 -7.72,-5.047 -20.582,-15.149 -20.582,-58.867 l -0.059,-8.532 c 0,-4.75 2.005,-7.105 4.684,-7.578 3.092,-0.548 5.579,-2.841 5.579,-6.022 0,-0.013 -0.007,-0.026 -0.007,-0.033 5.797,-0.208 10.438,-4.932 10.438,-10.778 0,-5.972 -4.833,-10.811 -10.805,-10.811 -3.207,0 -6.058,1.427 -8.037,3.647 -0.565,-1.503 -2.012,-2.583 -3.716,-2.583 -1.513,0 -2.831,0.869 -3.495,2.127 -1.034,-1.883 -3.013,-3.188 -5.315,-3.188 -2.342,0 -4.357,1.358 -5.368,3.303 -1.083,-0.495 -2.296,-0.793 -3.581,-0.793 -4.773,0 -8.641,3.868 -8.641,8.648 0,4.773 3.868,8.645 8.641,8.645 0.066,0 0.116,-0.017 0.175,-0.02 -0.066,0.281 -0.175,0.545 -0.175,0.846 0,1.688 1.156,2.993 2.643,3.577 1.5,0.598 2.481,2.213 2.481,3.964 v 29.855 c 0,17.064 -2.141,28.897 -7.891,37.072 -2.018,2.864 -4.79,5.288 -8.542,5.288 -2.956,0 -5.645,-1.341 -7.376,-3.455 0.03,0.046 0.043,0.083 0.069,0.126 -4.446,-7.257 -12.437,-12.113 -21.56,-12.113 -8.38,0 -15.78,4.076 -20.388,10.352 -8.711,-5.784 -19.142,-9.17 -30.383,-9.17 -30.376,0 -55.002,24.629 -55.002,55.009 0,30.373 24.626,55.002 55.002,55.002 12.146,0 23.327,-3.98 32.424,-10.64 0.945,10.593 9.837,18.891 20.668,18.891 11.479,0 20.767,-9.302 20.767,-20.771 0,-1.189 -0.116,-2.355 -0.314,-3.501 4.264,2.045 9.018,3.227 14.065,3.227 8.892,0 16.926,-3.561 22.805,-9.328 -0.003,0.168 -0.046,0.324 -0.046,0.495 0,7.023 5.695,12.711 12.714,12.711 3.373,0 6.405,-1.328 8.678,-3.468 3.898,11.974 15.139,20.635 28.408,20.635 11.426,0 21.339,-6.415 26.36,-15.832 7.35,4.496 15.958,7.135 25.207,7.135 12.341,0 23.569,-4.651 32.114,-12.258 2.292,1.434 4.998,2.299 7.895,2.299 8.301,0 15.02,-6.715 15.02,-15 -0.006,-5.644 -3.174,-10.507 -7.765,-13.067 z"
   style="fill:#ffffff" />
	<path
   inkscape:connector-curvature="0"
   id="path6"
   d="M 330.613,208.585 C 297.416,181.082 274.455,138.586 274.455,92.1 v 157.987 h 68.757 V 235.57 c 0,-10.828 -4.849,-20.57 -12.599,-26.985 z"
   style="fill:#ffffff" />
</g><g
     id="g886"><g
       id="g14"
       transform="matrix(1.7742362,0,0,1.7742362,-195.90298,-18.68632)">
	<path
   style="fill:#353f49"
   d="M 330.613,208.585 C 297.416,181.082 274.455,138.586 274.455,92.1 v 68.139 h 8.076 c 10.118,20.691 24.715,39.47 42.939,54.556 6.154,5.1 9.682,12.671 9.682,20.781 v 14.518 h 8.06 v -14.518 c 0,-10.834 -4.849,-20.576 -12.599,-26.991 z"
   id="path10"
   inkscape:connector-curvature="0" />
	<rect
   x="313.07999"
   y="238.36099"
   style="fill:#353f49"
   width="22.488001"
   height="2.253"
   id="rect12" />
</g><path
       style="fill:#ffffff;stroke-width:1.77423608"
       d="m 125.92042,351.39274 c 58.91172,-48.79682 99.63221,-124.19477 99.63221,-206.6719 V 425.02709 H 103.56858 v -25.7566 c -0.002,-19.21142 8.61924,-36.49603 22.35184,-47.87775 z"
       id="path16"
       inkscape:connector-curvature="0" /><g
       id="g22"
       transform="matrix(1.7742362,0,0,1.7742362,-195.90298,-18.68632)">
	<path
   style="fill:#353f49"
   d="M 181.387,208.585 C 214.591,181.082 237.542,138.586 237.542,92.1 v 68.139 h -8.07 c -10.118,20.691 -24.725,39.47 -42.942,54.556 -6.144,5.1 -9.678,12.671 -9.678,20.781 v 14.518 h -8.063 v -14.518 c -10e-4,-10.834 4.858,-20.576 12.598,-26.991 z"
   id="path18"
   inkscape:connector-curvature="0" />
	<rect
   x="176.425"
   y="238.36099"
   style="fill:#353f49"
   width="22.488001"
   height="2.253"
   id="rect20" />
</g><path
       style="fill:#ffffff;stroke-width:1.77423608"
       d="M 304.78825,95.093676 258.30149,106.80363 211.81473,95.093676 c 0.30517,-1.119553 0.72034,-2.168124 1.27746,-3.165236 0.18096,-0.328239 0.33354,-0.64405 0.53403,-0.966958 l 44.67527,-77.372671 44.68769,77.372671 c 0.1987,0.322908 0.34065,0.638719 0.54469,0.966958 0.52873,0.997112 0.96164,2.045683 1.25438,3.165236 z"
       id="path24"
       inkscape:connector-curvature="0" /><polygon
       style="fill:#d9d8d7"
       points="256,18.191 264.724,65.05 264.836,66.491 281.187,61.8 "
       id="polygon26"
       transform="matrix(1.7742362,0,0,1.7742362,-195.90298,-18.68632)" /><polygon
       style="fill:#474f59"
       points="265.054,33.868 256,18.191 246.952,33.868 "
       id="polygon28"
       transform="matrix(1.7742362,0,0,1.7742362,-195.90298,-18.68632)" /><polygon
       style="fill:#353f49"
       points="265.054,33.868 256,18.191 258.923,33.868 "
       id="polygon30"
       transform="matrix(1.7742362,0,0,1.7742362,-195.90298,-18.68632)" /><rect
       x="211.2399"
       y="99.289757"
       style="fill:#ff916e;stroke-width:1.77423608"
       width="31.377365"
       height="308.94775"
       id="rect32" /><rect
       x="242.60661"
       y="99.289757"
       style="fill:#f77b55;stroke-width:1.77423608"
       width="31.372042"
       height="308.94775"
       id="rect34" /><rect
       x="273.9502"
       y="99.289757"
       style="fill:#ee643c;stroke-width:1.77423608"
       width="31.395107"
       height="308.94775"
       id="rect36" /><circle
       style="fill:#ff916e;stroke-width:1.77423608"
       cx="226.94719"
       cy="99.289757"
       r="15.689571"
       id="circle38" /><circle
       style="fill:#f77b55;stroke-width:1.77423608"
       cx="258.30142"
       cy="99.289757"
       r="15.694893"
       id="circle40" /><path
       style="fill:#ee643c;stroke-width:1.77423608"
       d="m 305.37376,99.284414 c 0,8.661816 -7.05082,15.682476 -15.6949,15.682476 -8.67424,0 -15.68958,-7.02066 -15.68958,-15.682476 0,-8.667131 7.01001,-15.68247 15.68958,-15.68247 8.64585,-0.0021 15.6949,7.013551 15.6949,15.68247 z"
       id="path42"
       inkscape:connector-curvature="0" /><rect
       x="208.42772"
       y="408.23032"
       style="fill:#f2f2f2;stroke-width:1.77423608"
       width="99.749329"
       height="33.651936"
       id="rect44" /><rect
       x="273.9502"
       y="408.23032"
       style="fill:#d9d8d7;stroke-width:1.77423608"
       width="34.178886"
       height="33.651936"
       id="rect46" /><path
       style="fill:#474f59;stroke-width:1.77423608"
       d="m 305.37376,456.7043 c 0,4.81705 -1.85763,9.6341 -5.53208,13.31031 -3.67976,3.67445 -8.49859,5.50902 -13.31564,5.50902 h -56.44378 c -4.81172,0 -9.65184,-1.83457 -13.31032,-5.50902 -3.67975,-3.67975 -5.53916,-8.49148 -5.53916,-13.31031 v -14.82197 h 94.14098 z"
       id="path48"
       inkscape:connector-curvature="0" /><path
       style="fill:#353f49;stroke-width:1.77423608"
       d="m 273.97864,441.88233 v 14.82197 c 0,4.81705 -1.83457,9.6341 -5.51432,13.31031 -3.67976,3.67445 -8.48086,5.50902 -13.31033,5.50902 h 31.37205 c 4.81705,0 9.6412,-1.83457 13.31564,-5.50902 3.67445,-3.67975 5.53208,-8.49148 5.53208,-13.31031 v -14.82197 z"
       id="path50"
       inkscape:connector-curvature="0" /><rect
       x="254.59149"
       y="367.59854"
       style="fill:#474f59;stroke-width:1.77423608"
       width="7.4251785"
       height="74.283722"
       id="rect52" /></g></g>




<g
   id="g84">
</g>
<g
   id="g86">
</g>
<g
   id="g88">
</g>
<g
   id="g90">
</g>
<g
   id="g92">
</g>
<g
   id="g94">
</g>
<g
   id="g96">
</g>
<g
   id="g98">
</g>
<g
   id="g100">
</g>
<g
   id="g102">
</g>
<g
   id="g104">
</g>
<g
   id="g106">
</g>
<g
   id="g108">
</g>
<g
   id="g110">
</g>
<g
   id="g112">
</g>
</svg>